HIERARCHY
ROOT Hips
{
  OFFSET 43.5728 82.4013 133.654
  CHANNELS 6 Xposition Yposition Zposition Zrotation Xrotation Yrotation
  JOINT Spine
  {
    OFFSET 0 10 0
    CHANNELS 6 Xposition Yposition Zposition Zrotation Xrotation Yrotation
    JOINT Neck
    {
      OFFSET 0 30 0
      CHANNELS 6 Xposition Yposition Zposition Zrotation Xrotation Yrotation
      JOINT Head
      {
        OFFSET 0 8 0
        CHANNELS 6 Xposition Yposition Zposition Zrotation Xrotation Yrotation
        End Site
        {
          OFFSET 0 10 0
        }
      }
    }
    JOINT LeftArm
    {
      OFFSET 15 30 0
      CHANNELS 6 Xposition Yposition Zposition Zrotation Xrotation Yrotation
      JOINT LeftForeArm
      {
        OFFSET 25 0 0
        CHANNELS 6 Xposition Yposition Zposition Zrotation Xrotation Yrotation
        JOINT LeftHand
        {
          OFFSET 25 0 0
          CHANNELS 6 Xposition Yposition Zposition Zrotation Xrotation Yrotation
          End Site
          {
            OFFSET 10 0 0
          }
        }
      }
    }
    JOINT RightArm
    {
      OFFSET -15 30 0
      CHANNELS 6 Xposition Yposition Zposition Zrotation Xrotation Yrotation
      JOINT RightForeArm
      {
        OFFSET -25 0 0
        CHANNELS 6 Xposition Yposition Zposition Zrotation Xrotation Yrotation
        JOINT RightHand
        {
          OFFSET -25 0 0
          CHANNELS 6 Xposition Yposition Zposition Zrotation Xrotation Yrotation
          End Site
          {
            OFFSET -10 0 0
          }
        }
      }
    }
  }
  JOINT LeftUpLeg
  {
    OFFSET 10 -10 0
    CHANNELS 6 Xposition Yposition Zposition Zrotation Xrotation Yrotation
    JOINT LeftLeg
    {
      OFFSET 0 -35 0
      CHANNELS 6 Xposition Yposition Zposition Zrotation Xrotation Yrotation
      JOINT LeftFoot
      {
        OFFSET 0 -40 0
        CHANNELS 6 Xposition Yposition Zposition Zrotation Xrotation Yrotation
        End Site
        {
          OFFSET 0 0 15
        }
      }
    }
  }
  JOINT RightUpLeg
  {
    OFFSET -10 -10 0
    CHANNELS 6 Xposition Yposition Zposition Zrotation Xrotation Yrotation
    JOINT RightLeg
    {
      OFFSET 0 -35 0
      CHANNELS 6 Xposition Yposition Zposition Zrotation Xrotation Yrotation
      JOINT RightFoot
      {
        OFFSET 0 -40 0
        CHANNELS 6 Xposition Yposition Zposition Zrotation Xrotation Yrotation
        End Site
        {
          OFFSET 0 0 15
        }
      }
    }
  }
}
MOTION
Frames:	13
Frame Time:	0.0416667
48.5411 73.4837 104.323 28.4751 -55.7967 -156.596 7.10543e-15 10 -1.42109e-14 -5.75563 3.37082 5.71289 7.10543e-15 30 0 1.84615 -29.3953 9.42895 0 8 -2.84217e-14 -4.43614 -37.0039 6.79305 15 30 0 -32.6051 30.9795 -66.5483 25 0 0 24.2059 -19.4866 -50.2669 25 0 0 21.4373 -73.5501 28.4236 -15 30 1.42109e-14 41.5054 11.6594 57.6472 -25 -7.10543e-15 1.42109e-14 -25.0498 -21.2031 53.1257 -25 0 -5.32907e-15 -1.77338 -34.9289 -5.63254 10 -10 -1.42109e-14 85.0009 -73.4068 49.377 0 -35 -1.42109e-14 0.151716 29.7458 -0.571515 7.10543e-15 -40 0 -0.882209 2.30369 22.7515 -10 -10 -1.42109e-14 -8.55187 -86.31 -5.13296 0 -35 0 -0.187648 32.8446 0.645141 0 -40 2.84217e-14 -0.0354167 -0.061132 -11.9456 
48.3013 74.8832 103.45 25.9696 -50.5191 -158.199 7.10543e-15 10 0 -5.72873 5.29545 5.69488 7.10543e-15 30 -1.42109e-14 1.92015 -29.8026 9.07614 0 8 -2.84217e-14 -4.02897 -36.7567 6.55523 15 30 0 -29.7318 34.0221 -65.9581 25 0 7.10543e-15 24.8774 -20.8356 -52.5189 25 0 -1.06581e-14 22.1812 -73.9288 29.1985 -15 30 0 42.3024 14.2326 53.5193 -25 0 0 -25.9723 -23.3643 56.6521 -25 0 5.32907e-15 -1.81006 -35.2316 -5.69638 10 -10 1.42109e-14 64.415 -70.5863 29.0424 -1.42109e-14 -35 -1.42109e-14 0.128577 27.6001 -0.522828 0 -40 0 -0.850178 2.35041 21.4636 -10 -10 0 -1.30274 -78.6338 2.53197 0 -35 1.42109e-14 -0.171327 31.3822 0.610044 -1.42109e-14 -40 1.42109e-14 -0.138568 -0.461521 -13.454 
47.9738 75.9847 102.689 24.0208 -45.8536 -159.534 0 10 0 -5.49108 6.10698 5.77337 7.10543e-15 30 1.42109e-14 2.5278 -29.383 9.06644 7.10543e-15 8 1.42109e-14 -3.67226 -36.4543 6.63023 15 30 0 -27.4847 36.8005 -65.2878 25 -1.42109e-14 7.10543e-15 25.4113 -22.0079 -54.4478 25 0 7.10543e-15 23.3751 -74.4956 30.4391 -15 30 0 43.2184 17.1492 49.3506 -25 0 1.42109e-14 -26.8122 -25.7299 60.4492 -25 7.10543e-15 -4.44089e-15 -1.79993 -35.1485 -5.68931 10 -10 0 51.9546 -66.6801 16.6215 0 -35 0 0.116169 26.3491 -0.495345 -7.10543e-15 -40 -1.42109e-14 -0.662368 1.94448 20.5987 -10 -10 0 -0.0245671 -71.5874 3.92421 0 -35 1.42109e-14 -0.150018 29.5923 0.567944 0 -40 -1.42109e-14 -0.20355 -0.673472 -14.2856 
47.4956 76.9356 101.973 22.1969 -41.4251 -160.765 0 10 0 -5.04758 6.49609 5.91936 3.55271e-15 30 0 2.35014 -28.5712 8.77612 0 8 0 -2.52627 -36.156 6.88251 15 30 2.84217e-14 -25.9017 39.4902 -64.3328 25 0 0 25.9589 -23.3292 -56.5952 25 -3.55271e-15 0 24.9118 -75.1588 32.0313 -15 30 0 44.0645 20.2699 45.2772 -25 0 1.42109e-14 -27.537 -28.3299 64.5889 -25 -7.10543e-15 4.44089e-15 -1.79515 -35.1091 -5.67048 10 -10 0 43.3293 -62.387 7.8524 7.10543e-15 -35 0 0.110509 25.6589 -0.480586 0 -40 0 -0.350331 1.12993 20.197 -10 -10 0 0.160715 -64.7334 4.35583 0 -35 0 -0.128945 27.6462 0.523868 0 -40 0 -0.268639 -0.876104 -14.9046 
47.1125 77.4906 101.459 20.9775 -38.6304 -161.37 3.55271e-15 10 0 -4.67362 4.4978 5.85409 -7.10543e-15 30 0 2.4815 -26.3404 8.55573 7.10543e-15 8 0 -1.55643 -35.9942 7.29784 15 30 0 -25.3955 42.6019 -62.4593 25 0 -1.42109e-14 26.5183 -24.8449 -59.034 25 0 7.10543e-15 28.0186 -76.3099 35.2367 -15 30 2.84217e-14 45.3015 23.7429 40.8861 -25 -7.10543e-15 -1.42109e-14 -28.0677 -31.0456 68.9207 -25 7.10543e-15 0 -1.7447 -34.6892 -5.58231 10 -10 0 38.7813 -59.4872 3.55861 -3.55271e-15 -35 0 0.10792 25.3091 -0.472702 0 -40 0 -0.0965254 0.442394 19.7657 -10 -10 0 0.0128535 -60.3706 5.01226 -7.10543e-15 -35 -1.42109e-14 -0.118689 26.6258 0.501375 1.42109e-14 -40 1.42109e-14 -0.348245 -1.08261 -15.9181 
46.6966 77.9835 100.967 19.8925 -36.1725 -161.68 0 10 0 -4.1213 2.09898 5.67123 3.55271e-15 30 0 2.78441 -23.7707 8.49477 7.10543e-15 8 0 -1.16396 -35.3538 8.02179 15 30 0 -25.7884 45.4277 -60.1349 25 0 0 27.0072 -26.3568 -61.449 25 0 7.10543e-15 29.7301 -76.8543 36.9962 -15 30 0 46.6712 26.9824 36.7751 -25 -2.13163e-14 0 -28.3672 -33.6903 73.1935 -25 7.10543e-15 3.55271e-15 -1.7248 -34.5211 -5.54727 10 -10 0 35.1385 -56.7892 0.348209 0 -35 0 0.0869283 24.8371 -0.463066 0 -40 -1.42109e-14 0.104195 -0.131012 19.1966 -10 -10 0 -0.422711 -56.5066 5.52125 -7.10543e-15 -35 0 -0.111334 25.859 0.48477 1.42109e-14 -40 1.42109e-14 -0.43296 -1.26128 -17.0676 
46.234 78.4535 100.48 19.0226 -33.9136 -161.649 -1.06581e-14 10 0 -3.31145 -0.46905 5.45136 0 30 0 3.3707 -21.5174 8.59482 0 8 0 -1.48997 -33.4702 8.87436 15 30 0 -26.8157 47.8428 -57.552 25 0 7.10543e-15 27.4113 -27.8144 -63.7686 25 7.10543e-15 0 30.6847 -77.1344 37.976 -15 30 0 48.1975 29.909 32.9766 -25 7.10543e-15 -1.42109e-14 -28.4283 -36.1874 77.3237 -25 0 7.10543e-15 -1.60856 -33.5098 -5.33948 10 -10 2.84217e-14 32.0196 -54.2634 -2.35227 0 -35 0 0.114363 24.2339 -0.449973 -3.55271e-15 -40 0 0.238696 -0.548405 18.5566 -10 -10 0 -0.954182 -52.745 5.94546 1.42109e-14 -35 -1.42109e-14 -0.102905 24.9436 0.465117 0 -40 -1.42109e-14 -0.526621 -1.42507 -18.3792 
45.7081 78.903 99.9813 18.2427 -31.7463 -161.313 0 10 0 -2.39743 -2.98784 5.1398 3.55271e-15 30 0 4.15989 -19.4754 8.84847 0 8 0 -2.17224 -30.8219 9.9194 15 30 0 -28.2013 49.8276 -54.8791 25 0 -7.10543e-15 27.7478 -29.2748 -66.0926 25 -3.55271e-15 -1.42109e-14 31.922 -77.4749 39.2443 -15 30 0 49.5838 32.9004 29.7379 -25 -1.42109e-14 0 -28.2855 -38.4857 81.2486 -25 0 0 -1.55259 -33.0043 -5.23743 10 -10 0 29.1431 -51.7745 -5.0161 0 -35 -1.42109e-14 0.0912126 23.4699 -0.434207 0 -40 1.42109e-14 0.329599 -0.853411 18.0484 -10 -10 0 -1.67116 -48.8953 6.28709 7.10543e-15 -35 -1.42109e-14 -0.0931071 23.8148 0.441429 1.42109e-14 -40 0 -0.627894 -1.56649 -19.8502 
45.1606 79.3772 99.4071 17.3864 -29.5989 -161.186 3.55271e-15 10 2.84217e-14 -1.54774 -5.48668 4.92343 -3.55271e-15 30 0 5.32162 -17.0999 9.38595 -3.55271e-15 8 0 -3.1188 -28.041 11.3167 15 30 0 -30.2049 51.5201 -51.665 25 0 -7.10543e-15 28.0009 -30.6244 -68.2466 25 3.55271e-15 -1.42109e-14 28.556 -76.4871 35.7896 -15 30 0 50.8188 35.5424 27.0927 -25 0 0 -28.0017 -40.4049 84.6504 -25 0 -7.10543e-15 -1.33412 -30.8985 -4.82468 10 -10 0 26.6854 -48.9247 -7.24753 3.55271e-15 -35 0 0.0838321 22.6235 -0.416755 0 -40 0 0.443798 -1.23892 17.6761 -10 -10 0 -2.17675 -44.7286 6.98895 0 -35 0 -0.0809551 22.1892 0.408253 7.10543e-15 -40 0 -0.645201 -1.47112 -21.2751 
44.6021 79.7884 98.8567 16.4835 -27.7429 -161.207 -3.55271e-15 10 0 -0.773334 -8.10245 4.87584 0 30 0 6.56132 -14.5345 10.0977 0 8 1.42109e-14 -4.22915 -25.1618 12.9391 15 30 0 -33.3215 52.6562 -47.5606 25 0 0 28.171 -31.7514 -70.0533 25 0 0 26.4751 -75.7668 33.6463 -15 30 0 52.0095 38.0816 24.7888 -25 0 0 -27.613 -42.1037 87.7815 -25 -1.42109e-14 0 -1.0458 -27.7253 -4.23597 10 -10 0 24.6286 -46.266 -8.87603 0 -35 0 0.0771989 21.9133 -0.402278 0 -40 -1.42109e-14 0.563444 -1.65602 17.3333 -10 -10 0 -2.72909 -40.8222 7.84727 7.10543e-15 -35 -1.42109e-14 -0.0681298 20.3981 0.372231 7.10543e-15 -40 0 -0.622614 -1.29446 -22.6375 
44.0491 80.153 98.3512 15.5352 -25.9991 -161.312 0 10 2.84217e-14 -0.0207323 -10.5719 5.0019 -3.55271e-15 30 -1.42109e-14 7.87588 -11.6345 11.0272 7.10543e-15 8 -1.42109e-14 -5.74895 -22.539 14.7741 15 30 0 -37.0513 53.35 -42.9052 25 7.10543e-15 -1.42109e-14 28.3105 -33.0006 -72.0711 25 3.55271e-15 0 26.188 -75.6557 33.35 -15 30 -1.42109e-14 53.1709 40.6747 22.7263 -25 0 -1.42109e-14 -27.1552 -43.5859 90.6271 -25 0 -1.42109e-14 -0.796019 -24.4777 -3.66844 10 -10 2.84217e-14 22.8167 -43.6792 -10.0918 3.55271e-15 -35 0 0.0707517 21.2914 -0.389774 -3.55271e-15 -40 0 0.686324 -2.10629 16.9541 -10 -10 2.84217e-14 -3.31085 -37.0478 8.9058 0 -35 0 -0.0556112 18.5687 0.336147 -7.10543e-15 -40 0 -0.584906 -1.09924 -24.0439 
43.5161 80.4613 97.8867 14.6278 -24.3472 -161.4 -1.06581e-14 10 0 0.79707 -12.7518 5.33985 0 30 1.42109e-14 9.0974 -8.89779 12.2737 -3.55271e-15 8 0 -7.54503 -19.9708 17.0712 15 30 0 -40.8753 53.4242 -38.271 25 7.10543e-15 0 28.3913 -34.1124 -73.8838 25 0 0 26.2388 -75.6703 33.4025 -15 30 0 54.3214 43.062 20.8048 -25 7.10543e-15 1.42109e-14 -26.7379 -44.6828 92.814 -25 0 0 -0.656439 -22.3797 -3.31747 10 -10 0 21.2489 -41.2496 -10.9983 3.55271e-15 -35 0 0.0656141 20.7908 -0.379743 0 -40 0 0.805602 -2.57727 16.5165 -10 -10 0 -3.87638 -33.4009 10.1754 7.10543e-15 -35 0 -0.0444559 16.7183 0.300474 -7.10543e-15 -40 1.42109e-14 -0.574352 -0.97364 -25.5836 
43.0208 80.6795 97.4389 13.7305 -22.8654 -161.505 0 10 -2.84217e-14 1.56426 -14.8287 5.85802 -7.10543e-15 30 0 10.515 -5.73528 13.8533 0 8 -1.42109e-14 -10.043 -18.0639 19.7604 15 30 0 -44.504 53.0649 -33.716 25 0 1.42109e-14 28.4301 -35.23 -75.7261 25 7.10543e-15 0 26.5891 -75.8088 33.7639 -15 30 0 55.8007 45.2182 18.7047 -25 -1.42109e-14 1.42109e-14 -26.3404 -45.5832 94.668 -25 1.42109e-14 0 -0.504451 -19.7662 -2.89491 10 -10 0 19.8709 -38.9926 -11.5775 0 -35 0 0.0626356 20.3752 -0.375464 -3.55271e-15 -40 -1.42109e-14 0.923999 -3.08335 16.0299 -10 -10 -2.84217e-14 -4.48306 -30.0054 11.5062 -7.10543e-15 -35 1.42109e-14 -0.0343894 14.9569 0.267168 -7.10543e-15 -40 0 -0.674353 -1.07963 -27.0757 
